<svg xmlns="http://www.w3.org/2000/svg" viewBox="0 0 800 450" width="100%" height="100%">
      <defs>
        <linearGradient id="bg_cloud" x1="0%" y1="0%" x2="100%" y2="100%">
          <stop offset="0%" stop-color="#0284c7"/>
          <stop offset="100%" stop-color="#0f172a"/>
        </linearGradient>
      </defs>
      <rect width="800" height="450" fill="url(#bg_cloud)"/>
      <!-- Cloud Outline -->
      <path d="M 280 230 A 60 60 0 0 1 380 170 A 80 80 0 0 1 520 180 A 60 60 0 0 1 580 250 A 50 50 0 0 1 540 330 L 280 330 A 50 50 0 0 1 280 230 Z" fill="rgba(255,255,255,0.12)" stroke="#38bdf8" stroke-width="4"/>
      <!-- Server Node Boxes -->
      <rect x="120" y="120" width="160" height="80" rx="12" fill="#1e293b" stroke="#38bdf8" stroke-width="2"/>
      <circle cx="150" cy="160" r="8" fill="#10b981"/>
      <text x="170" y="165" font-family="'Poppins', sans-serif" font-weight="800" font-size="14" fill="#ffffff">Docker Pod</text>

      <rect x="520" y="120" width="160" height="80" rx="12" fill="#1e293b" stroke="#38bdf8" stroke-width="2"/>
      <circle cx="550" cy="160" r="8" fill="#38bdf8"/>
      <text x="570" y="165" font-family="'Poppins', sans-serif" font-weight="800" font-size="14" fill="#ffffff">Kubernetes</text>

      <rect x="320" y="300" width="160" height="80" rx="12" fill="#1e293b" stroke="#f59e0b" stroke-width="2"/>
      <circle cx="350" cy="340" r="8" fill="#f59e0b"/>
      <text x="370" y="345" font-family="'Poppins', sans-serif" font-weight="800" font-size="14" fill="#ffffff">AWS Cloud</text>
      <!-- Title text -->
      <text x="400" y="70" text-anchor="middle" font-family="'Outfit', sans-serif" font-weight="900" font-size="28" fill="#ffffff">CLOUD & DEVOPS INFRASTRUCTURE</text>
    </svg>