<svg xmlns="http://www.w3.org/2000/svg" viewBox="0 0 800 450" width="100%" height="100%">
      <defs>
        <linearGradient id="bg_rev" x1="0%" y1="0%" x2="100%" y2="100%">
          <stop offset="0%" stop-color="#0f172a"/>
          <stop offset="100%" stop-color="#1e293b"/>
        </linearGradient>
      </defs>
      <rect width="800" height="450" fill="url(#bg_rev)"/>
      <!-- 3D Skyscraper BIM Building Outline -->
      <polygon points="250,380 250,120 400,60 550,120 550,380" fill="rgba(2,132,199,0.2)" stroke="#38bdf8" stroke-width="3"/>
      <line x1="400" y1="60" x2="400" y2="380" stroke="#38bdf8" stroke-width="3"/>
      <!-- Windows Grid -->
      <rect x="280" y="150" width="30" height="25" fill="#38bdf8" opacity="0.8"/>
      <rect x="330" y="150" width="30" height="25" fill="#38bdf8" opacity="0.8"/>
      <rect x="440" y="150" width="30" height="25" fill="#38bdf8" opacity="0.8"/>
      <rect x="490" y="150" width="30" height="25" fill="#38bdf8" opacity="0.8"/>

      <rect x="280" y="200" width="30" height="25" fill="#38bdf8" opacity="0.8"/>
      <rect x="330" y="200" width="30" height="25" fill="#38bdf8" opacity="0.8"/>
      <rect x="440" y="200" width="30" height="25" fill="#38bdf8" opacity="0.8"/>
      <rect x="490" y="200" width="30" height="25" fill="#38bdf8" opacity="0.8"/>

      <rect x="280" y="250" width="30" height="25" fill="#38bdf8" opacity="0.8"/>
      <rect x="330" y="250" width="30" height="25" fill="#38bdf8" opacity="0.8"/>
      <rect x="440" y="250" width="30" height="25" fill="#38bdf8" opacity="0.8"/>
      <rect x="490" y="250" width="30" height="25" fill="#38bdf8" opacity="0.8"/>
      <text x="400" y="420" text-anchor="middle" font-family="'Outfit', sans-serif" font-weight="900" font-size="24" fill="#ffffff">REVIT ARCHITECTURE & BIM MODELING</text>
    </svg>